<svg width="24" height="24" viewBox="0 0 24 24" fill="none" xmlns="http://www.w3.org/2000/svg">
    <path fill-rule="evenodd" clip-rule="evenodd" d="M8.53783 19H5.019V9.85105H8.53783V19ZM6.77208 8.44352H6.75097C5.68758 8.44352 5 7.61167 5 6.69748C5 5.76218 5.70939 5 6.79249 5C7.87699 5 8.54346 5.78681 8.56527 6.72211C8.56457 7.63631 7.87699 8.44352 6.77208 8.44352ZM14.8717 12.6661C14.0941 12.6661 13.4642 13.2967 13.4642 14.0736V19H9.94536C9.94536 19 9.98688 10.5548 9.94536 9.85105H13.4642V10.8961C13.4642 10.8961 14.5536 9.88061 16.2356 9.88061C18.3202 9.88061 19.7981 11.3895 19.7981 14.3171V19H16.2792V14.0736C16.2792 13.2967 15.6494 12.6661 14.8717 12.6661Z" fill="white"/>
</svg>
