<svg width="24" height="24" viewBox="0 0 24 24" fill="none" xmlns="http://www.w3.org/2000/svg">
    <path fill-rule="evenodd" clip-rule="evenodd" d="M11.9944 3C4.66773 3 3.33067 3.65942 2.67515 4.06473C1.96205 4.50415 1.47749 5.21742 1.13944 5.94447C0.796301 6.68246 0.562927 7.52382 0.400918 8.33465C0.0766759 9.95741 0.0122969 11.5945 0.0002417 12.349L0 12.3642L0.000254245 12.3793C0.0156584 13.2959 0.0939654 14.8817 0.426769 16.41C0.593215 17.1744 0.830022 17.9566 1.17361 18.645C1.51437 19.3277 1.99199 19.9817 2.67327 20.4015C3.32937 20.8072 4.6647 21.4614 11.9944 21.4614C15.4234 21.4614 17.5959 21.3179 19.0143 21.1018C20.4305 20.886 21.1821 20.5862 21.6938 20.2095C22.8276 19.3728 23.3607 17.8087 23.639 16.4244C23.9299 14.9779 23.9971 13.4347 24 12.3403V12.3359C23.9981 11.4223 23.9468 9.84408 23.6664 8.31328C23.5262 7.54797 23.3235 6.7646 23.0251 6.07031C22.7307 5.38542 22.3116 4.71311 21.6958 4.25849C21.1829 3.88084 20.4291 3.57856 19.0116 3.36157C17.5923 3.1443 15.4203 3 11.9944 3ZM3.64549 5.6353L3.66193 5.62481C3.86325 5.49472 4.86694 4.84614 11.9944 4.84614C15.3857 4.84614 17.4495 4.99009 18.7322 5.18645C20.0158 5.38294 20.4313 5.62018 20.5999 5.74416C20.8474 5.92713 21.1005 6.26788 21.329 6.7994C21.5536 7.32195 21.7247 7.95908 21.8505 8.64592C22.1019 10.0183 22.152 11.4698 22.1539 12.3377C22.151 13.3799 22.0855 14.7853 21.8291 16.0605C21.5601 17.3986 21.1301 18.3307 20.5989 18.7231C20.4328 18.8452 20.0197 19.0812 18.7363 19.2767C17.4539 19.4721 15.3891 19.6153 11.9944 19.6153C4.85852 19.6153 3.85993 18.9705 3.6598 18.8413L3.64362 18.8309L3.64208 18.83C3.35954 18.656 3.07968 18.3299 2.82542 17.8205C2.57386 17.3165 2.37811 16.6944 2.23064 16.0172C1.93733 14.6703 1.8616 13.2327 1.8464 12.3634C1.8584 11.6457 1.92123 10.148 2.21128 8.69637C2.35744 7.96485 2.55482 7.27913 2.81347 6.72284C3.07709 6.15588 3.36513 5.80795 3.64395 5.63625L3.64549 5.6353ZM9.73177 8.64223C10.0406 8.48041 10.406 8.50931 10.6865 8.71832L14.3926 11.4711C14.629 11.6474 14.7702 11.9315 14.7693 12.2311C14.7693 12.5297 14.629 12.8129 14.3926 12.9891L10.6865 15.7419C10.5265 15.8623 10.3391 15.923 10.1489 15.923C10.0067 15.923 9.8636 15.8893 9.73083 15.82C9.42293 15.6601 9.23085 15.3403 9.23085 14.9849V9.47828C9.23085 9.12383 9.42293 8.80308 9.73177 8.64223Z" fill="white"/>
</svg>
