<svg width="24" height="24" viewBox="0 0 24 24" fill="none" xmlns="http://www.w3.org/2000/svg">
    <path fill-rule="evenodd" clip-rule="evenodd" d="M18.7186 7.21382C19.4734 6.77639 20.053 6.08375 20.3259 5.25848C19.6196 5.66346 18.8373 5.9576 18.0046 6.11614C17.3377 5.42924 16.3877 5 15.3363 5C13.3173 5 11.6805 6.58243 11.6805 8.53425C11.6805 8.81125 11.7129 9.08101 11.7752 9.33967C8.73703 9.19229 6.04341 7.78522 4.24041 5.64695C3.92575 6.16895 3.74547 6.77607 3.74547 7.42378C3.74547 8.64994 4.3909 9.73174 5.37178 10.3655C4.7725 10.3472 4.20887 10.1882 3.71595 9.92348C3.71569 9.93823 3.71569 9.95304 3.71569 9.96791C3.71569 11.6803 4.97578 13.1088 6.6481 13.4335C6.34132 13.5143 6.01838 13.5574 5.68495 13.5574C5.44941 13.5574 5.22038 13.5353 4.99722 13.494C5.46238 14.8982 6.81241 15.92 8.41206 15.9486C7.16096 16.8965 5.58471 17.4615 3.87204 17.4615C3.57699 17.4615 3.28599 17.4448 3 17.4121C4.61777 18.4149 6.53933 19 8.60374 19C15.3277 19 19.0046 13.6145 19.0046 8.94408C19.0046 8.79083 19.0011 8.63841 18.9941 8.48686C19.7083 7.98856 20.3281 7.36606 20.8182 6.65729C20.1626 6.93839 19.458 7.12837 18.7186 7.21382Z" fill="white"/>
</svg>
