<svg width="24" height="24" viewBox="0 0 24 24" fill="none" xmlns="http://www.w3.org/2000/svg">
    <path fill-rule="evenodd" clip-rule="evenodd" d="M12.082 7C9.27529 7 7 9.27532 7 12.0819C7 14.8887 9.27529 17.1639 12.082 17.1639C14.8886 17.1639 17.1639 14.8887 17.1639 12.0819C17.1639 9.27532 14.8886 7 12.082 7ZM12.0821 15.3808C10.2602 15.3808 8.7832 13.9039 8.7832 12.0819C8.7832 10.2601 10.2602 8.78314 12.0821 8.78314C13.904 8.78314 15.3809 10.2601 15.3809 12.0819C15.3809 13.9039 13.904 15.3808 12.0821 15.3808Z" fill="white"/>
    <path d="M17.1475 7.29508C17.7813 7.29508 18.2951 6.78127 18.2951 6.14754C18.2951 5.51377 17.7813 5 17.1475 5C16.5138 5 16 5.51377 16 6.14754C16 6.78127 16.5138 7.29508 17.1475 7.29508Z" fill="white"/>
    <path fill-rule="evenodd" clip-rule="evenodd" d="M12 2C9.28416 2 8.94362 2.01144 7.87703 2.06018C6.81259 2.10879 6.08567 2.27781 5.44965 2.52498C4.79203 2.78053 4.23434 3.12247 3.67841 3.6784C3.12247 4.23433 2.78053 4.79206 2.52503 5.44964C2.27773 6.08574 2.10871 6.81266 2.06018 7.87705C2.01148 8.94363 2 9.28412 2 12C2 14.7159 2.01148 15.0564 2.06018 16.123C2.10871 17.1873 2.27773 17.9143 2.52503 18.5504C2.78053 19.2079 3.12247 19.7657 3.67841 20.3216C4.23434 20.8775 4.79203 21.2195 5.44965 21.475C6.08567 21.7222 6.81259 21.8912 7.87703 21.9398C8.94362 21.9885 9.28416 22 12 22C14.7158 22 15.0564 21.9885 16.123 21.9398C17.1874 21.8912 17.9143 21.7222 18.5504 21.475C19.208 21.2195 19.7657 20.8775 20.3216 20.3216C20.8775 19.7657 21.2195 19.2079 21.475 18.5504C21.7223 17.9143 21.8913 17.1873 21.9399 16.123C21.9886 15.0564 22 14.7159 22 12C22 9.28412 21.9886 8.94363 21.9399 7.87705C21.8913 6.81266 21.7223 6.08574 21.475 5.44964C21.2195 4.79206 20.8775 4.23433 20.3216 3.6784C19.7657 3.12247 19.208 2.78053 18.5504 2.52498C17.9143 2.27781 17.1874 2.10879 16.123 2.06018C15.0564 2.01144 14.7158 2 12 2ZM12 3.80179C14.6701 3.80179 14.9863 3.81196 16.0408 3.86004C17.0158 3.90453 17.5453 4.0675 17.8977 4.20439C18.3645 4.38582 18.6976 4.60252 19.0475 4.95244C19.3975 5.3024 19.6142 5.63549 19.7956 6.10226C19.9325 6.45463 20.0954 6.98418 20.1399 7.9591C20.188 9.01363 20.1982 9.32984 20.1982 12C20.1982 14.6702 20.188 14.9864 20.1399 16.0408C20.0954 17.0158 19.9325 17.5454 19.7956 17.8977C19.6142 18.3645 19.3975 18.6976 19.0475 19.0476C18.6976 19.3975 18.3645 19.6142 17.8977 19.7956C17.5453 19.9325 17.0158 20.0955 16.0408 20.1399C14.9865 20.188 14.6703 20.1982 12 20.1982C9.32962 20.1982 9.01345 20.188 7.95909 20.1399C6.98416 20.0955 6.45461 19.9325 6.10224 19.7956C5.63546 19.6142 5.30233 19.3975 4.95242 19.0476C4.60254 18.6976 4.38583 18.3645 4.20441 17.8977C4.06747 17.5454 3.90455 17.0158 3.86001 16.0408C3.81197 14.9864 3.80176 14.6702 3.80176 12C3.80176 9.32984 3.81197 9.01363 3.86001 7.9591C3.90455 6.98418 4.06747 6.45463 4.20441 6.10226C4.38583 5.63549 4.60254 5.3024 4.95242 4.95244C5.30233 4.60252 5.63546 4.38582 6.10224 4.20439C6.45461 4.0675 6.98416 3.90453 7.95909 3.86004C9.01362 3.81196 9.32984 3.80179 12 3.80179Z" fill="white"/>
</svg>
